<?xml version="1.0" encoding="UTF-8" standalone="no"?>
<svg
   version="1.0"
   width="1495.022616pt"
   height="676.500000pt"
   viewBox="0 0 1495.022616 676.500000"
   preserveAspectRatio="xMidYMid meet"
   id="svg4734"
   sodipodi:docname="811-001.svg"
   inkscape:version="1.1 (c4e8f9ed74, 2021-05-24)"
   xmlns:inkscape="http://www.inkscape.org/namespaces/inkscape"
   xmlns:sodipodi="http://sodipodi.sourceforge.net/DTD/sodipodi-0.dtd"
   xmlns:xlink="http://www.w3.org/1999/xlink"
   xmlns="http://www.w3.org/2000/svg"
   xmlns:svg="http://www.w3.org/2000/svg">
  <defs
     id="defs4738">
    <inkscape:path-effect
       effect="bspline"
       id="path-effect6235"
       is_visible="true"
       lpeversion="1"
       weight="33.333333"
       steps="2"
       helper_size="0"
       apply_no_weight="true"
       apply_with_weight="true"
       only_selected="false" />
    <g
       id="g5651">
      <symbol
         overflow="visible"
         id="symbol8116">
        <path
           style="stroke:none;"
           d=""
           id="path5850" />
      </symbol>
      <symbol
         overflow="visible"
         id="symbol678">
        <path
           style="stroke:none;"
           d="M 6.265625 -5.671875 C 6.75 -6.453125 7.171875 -6.484375 7.53125 -6.5 C 7.65625 -6.515625 7.671875 -6.671875 7.671875 -6.6875 C 7.671875 -6.765625 7.609375 -6.8125 7.53125 -6.8125 C 7.28125 -6.8125 6.984375 -6.78125 6.71875 -6.78125 C 6.390625 -6.78125 6.046875 -6.8125 5.734375 -6.8125 C 5.671875 -6.8125 5.546875 -6.8125 5.546875 -6.625 C 5.546875 -6.515625 5.625 -6.5 5.703125 -6.5 C 5.96875 -6.484375 6.15625 -6.375 6.15625 -6.171875 C 6.15625 -6.015625 6.015625 -5.796875 6.015625 -5.796875 L 2.953125 -0.921875 L 2.265625 -6.203125 C 2.265625 -6.375 2.5 -6.5 2.953125 -6.5 C 3.09375 -6.5 3.203125 -6.5 3.203125 -6.703125 C 3.203125 -6.78125 3.125 -6.8125 3.078125 -6.8125 C 2.671875 -6.8125 2.25 -6.78125 1.828125 -6.78125 C 1.65625 -6.78125 1.46875 -6.78125 1.28125 -6.78125 C 1.109375 -6.78125 0.921875 -6.8125 0.75 -6.8125 C 0.671875 -6.8125 0.5625 -6.8125 0.5625 -6.625 C 0.5625 -6.5 0.640625 -6.5 0.8125 -6.5 C 1.359375 -6.5 1.375 -6.40625 1.40625 -6.15625 L 2.1875 -0.015625 C 2.21875 0.1875 2.265625 0.21875 2.390625 0.21875 C 2.546875 0.21875 2.59375 0.171875 2.671875 0.046875 Z M 6.265625 -5.671875 "
           id="path2964" />
      </symbol>
      <symbol
         overflow="visible"
         id="symbol8283">
        <path
           style="stroke:none;"
           d="M 3.71875 -3.765625 C 3.53125 -4.140625 3.25 -4.40625 2.796875 -4.40625 C 1.640625 -4.40625 0.40625 -2.9375 0.40625 -1.484375 C 0.40625 -0.546875 0.953125 0.109375 1.71875 0.109375 C 1.921875 0.109375 2.421875 0.0625 3.015625 -0.640625 C 3.09375 -0.21875 3.453125 0.109375 3.921875 0.109375 C 4.28125 0.109375 4.5 -0.125 4.671875 -0.4375 C 4.828125 -0.796875 4.96875 -1.40625 4.96875 -1.421875 C 4.96875 -1.53125 4.875 -1.53125 4.84375 -1.53125 C 4.75 -1.53125 4.734375 -1.484375 4.703125 -1.34375 C 4.53125 -0.703125 4.359375 -0.109375 3.953125 -0.109375 C 3.671875 -0.109375 3.65625 -0.375 3.65625 -0.5625 C 3.65625 -0.78125 3.671875 -0.875 3.78125 -1.3125 C 3.890625 -1.71875 3.90625 -1.828125 4 -2.203125 L 4.359375 -3.59375 C 4.421875 -3.875 4.421875 -3.890625 4.421875 -3.9375 C 4.421875 -4.109375 4.3125 -4.203125 4.140625 -4.203125 C 3.890625 -4.203125 3.75 -3.984375 3.71875 -3.765625 Z M 3.078125 -1.1875 C 3.015625 -1 3.015625 -0.984375 2.875 -0.8125 C 2.4375 -0.265625 2.03125 -0.109375 1.75 -0.109375 C 1.25 -0.109375 1.109375 -0.65625 1.109375 -1.046875 C 1.109375 -1.546875 1.421875 -2.765625 1.65625 -3.234375 C 1.96875 -3.8125 2.40625 -4.1875 2.8125 -4.1875 C 3.453125 -4.1875 3.59375 -3.375 3.59375 -3.3125 C 3.59375 -3.25 3.578125 -3.1875 3.5625 -3.140625 Z M 3.078125 -1.1875 "
           id="path1711" />
      </symbol>
      <symbol
         overflow="visible"
         id="symbol8402">
        <path
           style="stroke:none;"
           d="M 3.328125 -3.015625 C 3.390625 -3.265625 3.625 -4.1875 4.3125 -4.1875 C 4.359375 -4.1875 4.609375 -4.1875 4.8125 -4.0625 C 4.53125 -4 4.34375 -3.765625 4.34375 -3.515625 C 4.34375 -3.359375 4.453125 -3.171875 4.71875 -3.171875 C 4.9375 -3.171875 5.25 -3.34375 5.25 -3.75 C 5.25 -4.265625 4.671875 -4.40625 4.328125 -4.40625 C 3.75 -4.40625 3.40625 -3.875 3.28125 -3.65625 C 3.03125 -4.3125 2.5 -4.40625 2.203125 -4.40625 C 1.171875 -4.40625 0.59375 -3.125 0.59375 -2.875 C 0.59375 -2.765625 0.703125 -2.765625 0.71875 -2.765625 C 0.796875 -2.765625 0.828125 -2.796875 0.84375 -2.875 C 1.1875 -3.9375 1.84375 -4.1875 2.1875 -4.1875 C 2.375 -4.1875 2.71875 -4.09375 2.71875 -3.515625 C 2.71875 -3.203125 2.546875 -2.546875 2.1875 -1.140625 C 2.03125 -0.53125 1.671875 -0.109375 1.234375 -0.109375 C 1.171875 -0.109375 0.953125 -0.109375 0.734375 -0.234375 C 0.984375 -0.296875 1.203125 -0.5 1.203125 -0.78125 C 1.203125 -1.046875 0.984375 -1.125 0.84375 -1.125 C 0.53125 -1.125 0.296875 -0.875 0.296875 -0.546875 C 0.296875 -0.09375 0.78125 0.109375 1.21875 0.109375 C 1.890625 0.109375 2.25 -0.59375 2.265625 -0.640625 C 2.390625 -0.28125 2.75 0.109375 3.34375 0.109375 C 4.375 0.109375 4.9375 -1.171875 4.9375 -1.421875 C 4.9375 -1.53125 4.859375 -1.53125 4.828125 -1.53125 C 4.734375 -1.53125 4.71875 -1.484375 4.6875 -1.421875 C 4.359375 -0.34375 3.6875 -0.109375 3.375 -0.109375 C 2.984375 -0.109375 2.828125 -0.421875 2.828125 -0.765625 C 2.828125 -0.984375 2.875 -1.203125 2.984375 -1.640625 Z M 3.328125 -3.015625 "
           id="path8589" />
      </symbol>
      <symbol
         overflow="visible"
         id="symbol5056">
        <path
           style="stroke:none;"
           d="M 7.0625 -2.328125 C 7.078125 -2.375 7.109375 -2.4375 7.109375 -2.46875 C 7.109375 -2.46875 7.109375 -2.578125 6.984375 -2.578125 C 6.890625 -2.578125 6.875 -2.515625 6.859375 -2.453125 C 6.203125 -0.984375 5.84375 -0.3125 4.140625 -0.3125 L 2.6875 -0.3125 C 2.546875 -0.3125 2.515625 -0.3125 2.46875 -0.3125 C 2.359375 -0.328125 2.328125 -0.34375 2.328125 -0.421875 C 2.328125 -0.453125 2.328125 -0.46875 2.375 -0.640625 L 3.0625 -3.375 L 4.046875 -3.375 C 4.890625 -3.375 4.890625 -3.15625 4.890625 -2.90625 C 4.890625 -2.84375 4.890625 -2.71875 4.828125 -2.421875 C 4.8125 -2.375 4.796875 -2.34375 4.796875 -2.3125 C 4.796875 -2.265625 4.828125 -2.203125 4.921875 -2.203125 C 5 -2.203125 5.03125 -2.25 5.078125 -2.40625 L 5.640625 -4.734375 C 5.640625 -4.796875 5.59375 -4.84375 5.515625 -4.84375 C 5.4375 -4.84375 5.40625 -4.78125 5.390625 -4.671875 C 5.171875 -3.90625 5 -3.671875 4.078125 -3.671875 L 3.140625 -3.671875 L 3.734375 -6.078125 C 3.828125 -6.4375 3.84375 -6.46875 4.28125 -6.46875 L 5.6875 -6.46875 C 6.890625 -6.46875 7.203125 -6.1875 7.203125 -5.359375 C 7.203125 -5.125 7.203125 -5.109375 7.15625 -4.828125 C 7.15625 -4.78125 7.140625 -4.703125 7.140625 -4.65625 C 7.140625 -4.609375 7.171875 -4.53125 7.265625 -4.53125 C 7.375 -4.53125 7.390625 -4.59375 7.40625 -4.78125 L 7.609375 -6.515625 C 7.640625 -6.78125 7.59375 -6.78125 7.34375 -6.78125 L 2.296875 -6.78125 C 2.109375 -6.78125 2 -6.78125 2 -6.578125 C 2 -6.46875 2.09375 -6.46875 2.28125 -6.46875 C 2.65625 -6.46875 2.9375 -6.46875 2.9375 -6.296875 C 2.9375 -6.25 2.9375 -6.234375 2.875 -6.046875 L 1.5625 -0.78125 C 1.46875 -0.390625 1.453125 -0.3125 0.65625 -0.3125 C 0.484375 -0.3125 0.375 -0.3125 0.375 -0.125 C 0.375 0 0.46875 0 0.65625 0 L 5.828125 0 C 6.0625 0 6.078125 -0.015625 6.140625 -0.171875 Z M 7.0625 -2.328125 "
           id="path626" />
      </symbol>
      <symbol
         overflow="visible"
         id="symbol6742">
        <path
           style="stroke:none;"
           d=""
           id="path1010" />
      </symbol>
      <symbol
         overflow="visible"
         id="symbol3368">
        <path
           style="stroke:none;"
           d="M 2.9375 -2.65625 C 2.796875 -2.890625 2.5625 -3.078125 2.21875 -3.078125 C 1.328125 -3.078125 0.421875 -2.09375 0.421875 -1.09375 C 0.421875 -0.40625 0.875 0.0625 1.484375 0.0625 C 1.859375 0.0625 2.1875 -0.140625 2.46875 -0.421875 C 2.59375 0 3 0.0625 3.1875 0.0625 C 3.4375 0.0625 3.609375 -0.078125 3.734375 -0.296875 C 3.890625 -0.578125 3.984375 -0.96875 3.984375 -1 C 3.984375 -1.09375 3.890625 -1.09375 3.875 -1.09375 C 3.765625 -1.09375 3.765625 -1.0625 3.71875 -0.875 C 3.625 -0.53125 3.5 -0.125 3.203125 -0.125 C 3.03125 -0.125 2.96875 -0.28125 2.96875 -0.46875 C 2.96875 -0.578125 3.03125 -0.84375 3.078125 -1.015625 C 3.125 -1.203125 3.203125 -1.484375 3.234375 -1.640625 L 3.375 -2.171875 C 3.421875 -2.359375 3.5 -2.6875 3.5 -2.71875 C 3.5 -2.875 3.375 -2.9375 3.265625 -2.9375 C 3.140625 -2.9375 2.984375 -2.859375 2.9375 -2.65625 Z M 2.5 -0.875 C 2.453125 -0.671875 2.296875 -0.53125 2.140625 -0.40625 C 2.078125 -0.34375 1.796875 -0.125 1.5 -0.125 C 1.234375 -0.125 0.984375 -0.3125 0.984375 -0.796875 C 0.984375 -1.171875 1.1875 -1.9375 1.359375 -2.21875 C 1.671875 -2.78125 2.03125 -2.875 2.21875 -2.875 C 2.703125 -2.875 2.84375 -2.34375 2.84375 -2.265625 C 2.84375 -2.25 2.828125 -2.1875 2.828125 -2.171875 Z M 2.5 -0.875 "
           id="path7964" />
      </symbol>
      <symbol
         overflow="visible"
         id="symbol160">
        <path
           style="stroke:none;"
           d="M 1.84375 -4.625 C 1.84375 -4.640625 1.875 -4.734375 1.875 -4.734375 C 1.875 -4.78125 1.84375 -4.84375 1.75 -4.84375 C 1.609375 -4.84375 1.03125 -4.78125 0.859375 -4.765625 C 0.8125 -4.765625 0.703125 -4.75 0.703125 -4.609375 C 0.703125 -4.515625 0.8125 -4.515625 0.890625 -4.515625 C 1.21875 -4.515625 1.21875 -4.453125 1.21875 -4.40625 C 1.21875 -4.359375 1.15625 -4.078125 1.109375 -3.921875 L 0.953125 -3.28125 C 0.890625 -3.03125 0.515625 -1.515625 0.5 -1.421875 C 0.453125 -1.25 0.453125 -1.15625 0.453125 -1.078125 C 0.453125 -0.375 0.90625 0.0625 1.484375 0.0625 C 2.359375 0.0625 3.28125 -0.875 3.28125 -1.90625 C 3.28125 -2.71875 2.71875 -3.078125 2.234375 -3.078125 C 1.875 -3.078125 1.5625 -2.875 1.359375 -2.6875 Z M 1.484375 -0.125 C 1.15625 -0.125 0.953125 -0.421875 0.953125 -0.84375 C 0.953125 -1.09375 1.015625 -1.328125 1.21875 -2.125 C 1.25 -2.25 1.25 -2.265625 1.390625 -2.421875 C 1.65625 -2.71875 1.96875 -2.875 2.21875 -2.875 C 2.484375 -2.875 2.71875 -2.671875 2.71875 -2.203125 C 2.71875 -1.921875 2.578125 -1.203125 2.359375 -0.796875 C 2.1875 -0.453125 1.84375 -0.125 1.484375 -0.125 Z M 1.484375 -0.125 "
           id="path2866" />
      </symbol>
      <symbol
         overflow="visible"
         id="symbol5875">
        <path
           style="stroke:none;"
           d=""
           id="path3237" />
      </symbol>
      <symbol
         overflow="visible"
         id="symbol7126">
        <path
           style="stroke:none;"
           d="M 4.578125 -3.1875 C 4.578125 -3.984375 4.53125 -4.78125 4.1875 -5.515625 C 3.734375 -6.484375 2.90625 -6.640625 2.5 -6.640625 C 1.890625 -6.640625 1.171875 -6.375 0.75 -5.453125 C 0.4375 -4.765625 0.390625 -3.984375 0.390625 -3.1875 C 0.390625 -2.4375 0.421875 -1.546875 0.84375 -0.78125 C 1.265625 0.015625 2 0.21875 2.484375 0.21875 C 3.015625 0.21875 3.78125 0.015625 4.21875 -0.9375 C 4.53125 -1.625 4.578125 -2.40625 4.578125 -3.1875 Z M 2.484375 0 C 2.09375 0 1.5 -0.25 1.328125 -1.203125 C 1.21875 -1.796875 1.21875 -2.71875 1.21875 -3.3125 C 1.21875 -3.953125 1.21875 -4.609375 1.296875 -5.140625 C 1.484375 -6.328125 2.234375 -6.421875 2.484375 -6.421875 C 2.8125 -6.421875 3.46875 -6.234375 3.65625 -5.25 C 3.765625 -4.6875 3.765625 -3.9375 3.765625 -3.3125 C 3.765625 -2.5625 3.765625 -1.890625 3.65625 -1.25 C 3.5 -0.296875 2.9375 0 2.484375 0 Z M 2.484375 0 "
           id="path7856" />
      </symbol>
    </g>
  </defs>
  <sodipodi:namedview
     id="namedview4736"
     pagecolor="#ffffff"
     bordercolor="#999999"
     borderopacity="1"
     inkscape:pageshadow="0"
     inkscape:pageopacity="0"
     inkscape:pagecheckerboard="0"
     inkscape:document-units="pt"
     showgrid="false"
     inkscape:zoom="1.4634146"
     inkscape:cx="328.68333"
     inkscape:cy="670.69166"
     inkscape:window-width="1920"
     inkscape:window-height="1039"
     inkscape:window-x="0"
     inkscape:window-y="0"
     inkscape:window-maximized="1"
     inkscape:current-layer="g4732" />
  <metadata
     id="metadata2">
Created by potrace 1.16, written by Peter Selinger 2001-2019
</metadata>
  <g
     transform="matrix(0.1 0 0 -0.1 -205 676.5)"
     fill="#000000"
     stroke="none"
     id="g4732">
    <g
       id="g730">
      <path
         d="M8769 6186 c-4 -4 -2014 -19 -2389 -17 -219 1 -226 0 -259 -22 l-34 -23 3 -899 c1 -495 2 -922 1 -950 -1 -27 -3 -714 -5 -1525 -2 -811 -7 -1485 -11 -1498 -7 -22 -6 -23 31 -20 l39 3 3 2430 c1 1336 5 2432 10 2436 4 4 87 9 185 10 145 2 180 0 188 -12 17 -27 9 -55 -26 -96 -31 -37 -34 -43 -20 -56 12 -13 20 -13 46 -4 24 9 33 9 36 1 3 -9 12 -9 33 -1 26 10 32 9 44 -8 18 -25 34 -11 18 15 -7 11 -12 25 -12 31 0 6 -13 27 -30 46 -34 38 -38 68 -12 81 9 5 55 7 102 6 152 -4 700 -4 1391 1 l677 5 6 -157 c3 -87 9 -525 13 -973 3 -448 7 -858 7 -910 1 -111 10 -135 37 -99 l18 24 678 1 c373 0 775 1 893 2 118 2 248 3 288 2 l72 0 -6 -42 c-4 -23 -18 -57 -31 -76 -39 -59 -30 -73 33 -50 26 9 38 8 69 -6 35 -17 65 -16 65 2 0 5 -13 25 -29 45 -35 45 -55 92 -47 112 5 13 42 15 268 15 791 0 1115 1 1133 2 11 0 209 1 440 2 411 1 420 2 423 21 6 47 6 47 -364 45 -192 -1 -686 -4 -1099 -7 -740 -6 -897 -7 -985 -4 -25 1 -438 0 -918 -1 l-873 -3 -4 450 c-3 248 -7 700 -10 1005 -3 305 -8 571 -11 590 -8 46 -30 80 -53 80 -10 0 -20 -2 -22 -4z"
         id="path728" />
    </g>
    <g
       id="g1002">
      <path
         d="m 6555,5969.8446 c -8,-13 -8,-82.8446 -6,-2729.8446 l 2,-1785 -31,-3 c -18,-2 -30,-9 -30,-18 0,-8 4,-14 9,-14 5,0 13,-15 16,-33 4,-17 14,-41 21,-52 8,-11 14,-34 14,-52 0,-51 33,-45 54,10 9,23 16,49 16,56 0,7 9,25 19,40 10,14 21,35 23,46 2,17 -3,20 -37,21 -18.8648,0.331 -31.4861,0.5524 -39.2777,1.6793 C 6569.9716,1459.9575 6601,1705 6598,3694 c -3,1989 -4,2247.8446 -19,2266.8446 -12,16 -18,18 -24,9 z"
         id="path1000"
         sodipodi:nodetypes="ccccssccscscccsscc" />
    </g>
    <g
       id="g2230">
      <path
         d="M4717 4193 c-4 -3 -7 -17 -7 -29 0 -18 13 -29 65 -53 48 -23 65 -36 65 -51 0 -19 -13 -19 -1087 -21 -599 0 -1226 -1 -1395 -1 l-308 1 0 -23 c0 -12 5 -27 10 -32 7 -7 122 -9 333 -7 177 1 785 5 1351 7 566 3 1049 8 1073 12 43 6 45 5 41 -17 -2 -16 -12 -25 -33 -31 -16 -4 -50 -25 -75 -47 -35 -30 -42 -42 -33 -51 21 -22 95 8 153 62 37 34 60 48 80 48 16 0 32 5 35 11 4 5 18 14 31 19 50 19 13 70 -51 70 -14 0 -42 15 -62 33 -21 18 -55 42 -76 52 -21 11 -45 28 -54 38 -16 17 -44 23 -56 10z"
         id="path2228" />
    </g>
    <g
       id="g2510">
      <path
         d="M8813 3804 c-3 -8 1 -23 10 -32 15 -14 17 -14 23 1 8 21 -1 47 -16 47 -6 0 -13 -7 -17 -16z"
         id="path2508" />
    </g>
    <g
       id="g2574">
      <path
         d="m 10817,3871.4272 c -6,-9 -1,-607.4272 8,-1106.4272 3,-154 6,-400 8,-547 2,-266 7,-861.7909 37,-842.7909 16,10 9,1207.7909 -15,2029.7909 -2,83 -4,155 -4,160 v 65 c 1,88 -5,241.4272 -18,245.4272 -6,2 -13,0 -16,-4 z"
         id="path2572"
         sodipodi:nodetypes="cccccsccc" />
    </g>
    <g
       id="g2654">
      <path
         d="M8817 3643 c-4 -3 -7 -21 -7 -40 0 -26 4 -33 20 -33 14 0 20 7 20 24 0 44 -16 67 -33 49z"
         id="path2652" />
    </g>
    <g
       id="g2766">
      <path
         d="M8827 3463 c-11 -10 -8 -93 3 -93 16 0 29 35 20 51 -5 7 -7 22 -4 32 5 17 -6 23 -19 10z"
         id="path2764" />
    </g>
    <g
       id="g2942">
      <path
         d="M8835 3237 c-4 -10 -5 -21 -1 -24 10 -10 18 4 13 24 -4 17 -4 17 -12 0z"
         id="path2940" />
    </g>
    <g
       id="g2998">
      <path
         d="M8814 3046 c-6 -16 12 -56 25 -56 13 0 22 30 16 51 -7 22 -33 25 -41 5z"
         id="path2996" />
    </g>
    <g
       id="g3070">
      <path
         d="M8830 2855 c0 -16 6 -25 15 -25 9 0 15 9 15 25 0 16 -6 25 -15 25 -9 0 -15 -9 -15 -25z"
         id="path3068" />
    </g>
    <g
       id="g3134">
      <path
         d="M8827 2671 c-5 -22 11 -54 24 -46 5 4 9 19 9 36 0 33 -25 41 -33 10z"
         id="path3132" />
    </g>
    <g
       id="g3214">
      <path
         d="M8834 2506 c-8 -20 4 -86 15 -86 12 0 13 88 1 95 -6 3 -13 -1 -16 -9z"
         id="path3212" />
    </g>
    <g
       id="g3342">
      <path
         d="M8835 2268 c-8 -44 0 -64 21 -47 18 15 18 40 0 64 -13 19 -15 18 -21 -17z"
         id="path3340" />
    </g>
    <g
       id="g3414">
      <path
         d="M8837 2114 c-11 -11 -8 -82 4 -89 16 -10 23 2 23 40 0 35 -15 61 -27 49z"
         id="path3412" />
    </g>
    <g
       id="g3474">
      <path
         d="M10852 1903 c-5 -10 -7 -98 -4 -205 4 -152 7 -188 19 -188 20 0 36 50 28 90 -4 19 -6 94 -5 166 0 104 -3 134 -14 143 -12 10 -16 9 -24 -6z"
         id="path3472" />
    </g>
    <g
       id="g3482">
      <path
         d="M8830 1881 c0 -27 19 -36 37 -18 18 18 9 37 -18 37 -12 0 -19 -7 -19 -19z"
         id="path3480" />
    </g>
    <g
       id="g3578">
      <path
         d="M8835 1699 c-4 -12 -2 -26 4 -32 15 -15 46 16 38 37 -9 23 -34 20 -42 -5z"
         id="path3576" />
    </g>
    <g
       id="g3646">
      <path
         d="M8834 1526 c-7 -19 3 -36 22 -36 10 0 14 8 12 22 -4 26 -26 36 -34 14z"
         id="path3644" />
    </g>
    <g
       id="g3658">
      <path
         d="M10934 1481 c-26 -25 -123 -36 -131 -16 -3 8 -14 15 -25 15 -29 0 -17 -41 29 -96 22 -27 33 -50 29 -60 -8 -20 10 -54 29 -54 8 0 18 12 21 28 4 15 15 41 24 57 27 44 59 134 51 140 -4 2 -16 -4 -27 -14z"
         id="path3656" />
    </g>
    <g
       id="g3730">
      <path
         d="M8854 1336 c-8 -22 0 -81 11 -81 6 0 11 21 13 48 3 45 -12 65 -24 33z"
         id="path3728" />
    </g>
    <g
       id="g4202" />
    <g
       id="g4218" />
    <g
       inkscape:label=""
       transform="matrix(73.117634,0,0,-73.117634,2391.8217,10790.871)"
       id="g5520">
      <g
         id="g3625">
        <g
           id="g5718"
           transform="translate(-32.938587,16.887226)">
          <g
             style="fill:#000000;fill-opacity:1"
             id="g8813">
            <use
               xlink:href="#symbol678"
               x="91.925003"
               y="81.962997"
               id="use7269"
               width="100%"
               height="100%" />
          </g>
          <g
             style="fill:#000000;fill-opacity:1"
             id="g5122">
            <use
               xlink:href="#symbol3368"
               x="97.737"
               y="83.457001"
               id="use5149"
               width="100%"
               height="100%" />
          </g>
        </g>
        <g
           id="g5712"
           transform="translate(16.040049,32.345071)">
          <g
             style="fill:#000000;fill-opacity:1"
             id="g2205">
            <use
               xlink:href="#symbol678"
               x="102.556"
               y="81.962997"
               id="use4294"
               width="100%"
               height="100%" />
          </g>
          <g
             style="fill:#000000;fill-opacity:1"
             id="g2432">
            <use
               xlink:href="#symbol160"
               x="108.368"
               y="83.457001"
               id="use1841"
               width="100%"
               height="100%" />
          </g>
        </g>
        <g
           style="fill:#000000;fill-opacity:1"
           id="g5112">
          <use
             xlink:href="#symbol8283"
             x="112.37"
             y="81.962997"
             id="use5759"
             width="100%"
             height="100%"
             transform="translate(-26.770021,58.989932)" />
          <use
             xlink:href="#symbol8402"
             x="117.63623"
             y="81.962997"
             id="use9383"
             width="100%"
             height="100%"
             transform="translate(25.044541,58.44138)" />
          <use
             xlink:href="#symbol5056"
             x="123.32986"
             y="81.962997"
             id="use2894"
             width="100%"
             height="100%"
             transform="translate(-113.19793,7.1589945)" />
          <path
             style="fill:none;stroke:#000000;stroke-width:0.17779569;stroke-linecap:butt;stroke-linejoin:miter;stroke-opacity:1;stroke-miterlimit:4;stroke-dasharray:1.42236551,0.71118276;stroke-dashoffset:0"
             d="m -4.6749557,131.11589 c 0,0 151.0379657,-0.0375 151.0379657,-0.0375"
             id="path6233"
             inkscape:path-effect="#path-effect6235"
             inkscape:original-d="M -4.6749557,131.11589 146.36301,131.07841" />
        </g>
        <g
           style="fill:#000000;fill-opacity:1"
           id="g100"
           transform="translate(-84.193858,59.332681)">
          <use
             xlink:href="#symbol7126"
             x="131.258"
             y="81.962997"
             id="use8660"
             width="100%"
             height="100%" />
        </g>
      </g>
    </g>
  </g>
</svg>
