<?xml version="1.0" encoding="UTF-8" standalone="no"?>
<svg
   version="1.0"
   width="691.723970pt"
   height="684.616625pt"
   viewBox="0 0 691.723970 684.616625"
   preserveAspectRatio="xMidYMid meet"
   id="svg74"
   sodipodi:docname="811-002.svg"
   inkscape:version="1.1 (c4e8f9ed74, 2021-05-24)"
   xmlns:inkscape="http://www.inkscape.org/namespaces/inkscape"
   xmlns:sodipodi="http://sodipodi.sourceforge.net/DTD/sodipodi-0.dtd"
   xmlns="http://www.w3.org/2000/svg"
   xmlns:svg="http://www.w3.org/2000/svg">
  <defs
     id="defs78" />
  <sodipodi:namedview
     id="namedview76"
     pagecolor="#ffffff"
     bordercolor="#999999"
     borderopacity="1"
     inkscape:pageshadow="0"
     inkscape:pageopacity="0"
     inkscape:pagecheckerboard="0"
     inkscape:document-units="pt"
     showgrid="false"
     inkscape:zoom="0.72303238"
     inkscape:cx="460.56029"
     inkscape:cy="455.71956"
     inkscape:window-width="1920"
     inkscape:window-height="1039"
     inkscape:window-x="0"
     inkscape:window-y="0"
     inkscape:window-maximized="1"
     inkscape:current-layer="g72" />
  <metadata
     id="metadata2">
Created by potrace 1.16, written by Peter Selinger 2001-2019
</metadata>
  <g
     transform="translate(0.000000,744.000000) scale(0.100000,-0.100000)"
     fill="#000000"
     stroke="none"
     id="g72">
    <g
       id="g874"
       transform="matrix(1.0000471,0.01054524,0.0042139,0.99999724,-39.073111,-109.52487)">
      <g
         id="g22">
        <path
           d="m 5449,7134 c -12,-13 -31,-24 -41,-24 -11,0 -30,-12 -44,-27 -23,-25 -25,-33 -20,-95 4,-56 9,-72 28,-88 13,-11 30,-19 39,-20 9,0 24,-9 34,-20 14,-16 31,-20 77,-20 45,0 63,5 78,20 27,27 68,25 96,-5 20,-22 28,-24 76,-18 44,5 60,13 96,47 39,37 42,44 42,90 0,50 -2,53 -68,118 -63,63 -71,67 -103,62 -23,-4 -42,-16 -59,-40 -14,-18 -30,-34 -37,-34 -6,0 -24,15 -40,34 -23,27 -37,34 -79,39 -46,5 -54,3 -75,-19 z m 81,-68 c 6,-8 21,-16 33,-18 16,-2 23,-11 25,-31 3,-23 -5,-37 -38,-68 -22,-21 -44,-39 -47,-39 -4,0 -17,10 -30,22 -31,29 -31,88 -1,123 25,28 40,31 58,11 z m 236,-31 c 4,-8 12,-15 19,-15 13,0 25,-21 25,-45 0,-16 -49,-65 -64,-65 -18,0 -56,43 -56,63 0,20 47,76 63,77 4,0 10,-7 13,-15 z"
           id="path20" />
      </g>
      <g
         id="g26">
        <path
           d="m 2325,7070 c -10,-11 -24,-20 -32,-20 -8,0 -28,-13 -44,-29 -27,-27 -29,-35 -29,-105 0,-60 3,-76 15,-76 8,0 19,-9 25,-20 6,-11 19,-20 29,-20 10,0 26,-9 37,-21 25,-28 111,-22 143,10 28,28 66,27 93,-4 28,-32 91,-35 110,-5 7,11 23,20 35,20 21,0 27,9 24,36 -1,6 8,19 19,29 14,13 20,31 20,59 0,37 -7,48 -61,104 -50,51 -67,62 -94,62 -26,0 -37,-7 -60,-40 -15,-22 -33,-40 -40,-40 -7,0 -22,14 -35,30 -16,21 -32,30 -51,30 -15,0 -31,5 -34,10 -10,17 -51,11 -70,-10 z m 75,-75 c 7,-8 23,-15 36,-15 20,0 24,-5 24,-31 0,-22 -11,-41 -38,-70 -22,-21 -43,-39 -48,-39 -4,0 -19,12 -32,28 -29,33 -25,82 9,118 26,28 32,29 49,9 z m 259,-46 24,-30 -22,-15 c -11,-8 -21,-26 -21,-39 0,-35 -15,-38 -49,-9 -39,33 -40,67 -3,99 35,31 42,30 71,-6 z"
           id="path24" />
      </g>
      <g
         id="g30">
        <path
           d="m 1852,7038 c -7,-7 -12,-29 -12,-49 0,-20 -7,-42 -15,-49 -8,-7 -15,-22 -15,-35 0,-12 -9,-30 -20,-40 -11,-10 -20,-26 -20,-35 0,-10 -7,-23 -15,-30 -9,-8 -15,-30 -15,-56 v -44 h 50 50 V 4753 c 0,-1072 0,-2268 0,-2658 l -1,-711 29,-27 28,-27 2280,-2 2279,-3 3,-42 c 2,-23 10,-47 17,-53 20,-17 144,-4 152,16 3,8 18,14 34,14 18,0 32,7 39,20 7,13 21,20 39,20 33,0 71,37 71,68 0,20 -9,26 -36,23 -6,-1 -19,8 -29,19 -10,11 -30,20 -44,20 -15,0 -31,8 -39,20 -7,11 -23,20 -36,20 -13,0 -26,7 -30,15 -3,8 -16,15 -28,15 -13,0 -31,9 -41,21 -14,15 -27,19 -60,17 -50,-4 -60,-27 -27,-63 13,-13 20,-33 18,-46 l -3,-22 h -640 -640 v 2644 2644 l 50,5 50,5 3,56 c 2,45 -1,58 -18,74 -11,10 -20,29 -20,42 0,13 -7,26 -15,29 -8,4 -15,17 -15,30 0,37 -44,74 -89,74 -35,0 -39,-2 -50,-40 -6,-22 -16,-40 -21,-40 -6,0 -10,-11 -10,-24 0,-13 -7,-29 -15,-36 -8,-7 -15,-18 -15,-25 0,-7 -9,-24 -21,-39 -14,-18 -19,-37 -17,-63 3,-37 4,-38 51,-43 l 47,-5 3,-2612 c 2,-2168 0,-2614 -11,-2618 -25,-9 -42,-5 -59,15 -10,11 -27,20 -38,20 -11,0 -28,9 -38,20 -9,11 -25,20 -36,20 -10,0 -24,7 -31,15 -7,9 -29,15 -51,15 -28,0 -42,6 -51,20 -7,11 -22,20 -34,20 -11,0 -29,9 -39,20 -10,12 -24,19 -31,16 -7,-3 -20,2 -31,9 -10,8 -27,15 -39,15 -11,0 -29,9 -39,20 -10,11 -28,20 -40,20 -13,0 -25,7 -29,15 -3,8 -16,15 -28,15 -13,0 -31,9 -41,20 -12,14 -29,20 -57,20 -27,0 -43,5 -46,15 -4,8 -17,15 -30,15 -13,0 -29,9 -36,20 -8,12 -24,20 -39,20 -14,0 -33,8 -43,19 -11,12 -25,16 -41,13 -14,-2 -36,3 -50,12 -13,9 -30,16 -38,16 -7,0 -30,9 -52,20 -22,11 -47,20 -57,20 -9,0 -22,9 -28,20 -8,15 -21,20 -49,20 -25,0 -44,7 -56,20 -10,11 -28,20 -39,20 -12,0 -29,9 -39,20 -9,11 -23,17 -32,14 -8,-4 -17,1 -21,10 -4,10 -18,16 -38,16 -17,0 -46,9 -64,20 -18,11 -41,20 -52,20 -11,0 -24,9 -30,20 -6,11 -21,20 -33,20 -12,0 -28,9 -35,20 -9,15 -23,20 -56,20 -26,0 -48,6 -56,15 -7,8 -21,15 -32,15 -10,0 -21,7 -24,15 -4,8 -16,15 -29,15 -12,0 -30,9 -40,20 -13,14 -31,20 -61,20 -33,0 -46,5 -54,20 -6,11 -21,20 -34,20 -13,0 -26,7 -30,15 -3,8 -16,15 -29,15 -14,0 -30,7 -37,15 -7,8 -23,15 -36,15 -13,0 -28,9 -34,20 -8,15 -21,20 -55,20 -34,0 -47,5 -55,20 -7,14 -17,19 -29,15 -10,-3 -24,1 -31,10 -7,8 -23,15 -36,15 -13,0 -28,9 -34,20 -7,12 -21,20 -38,20 -15,0 -36,7 -46,15 -11,8 -27,15 -37,15 -9,0 -19,7 -23,15 -3,8 -17,15 -31,15 -14,0 -30,9 -37,20 -9,15 -24,20 -53,20 -28,0 -46,6 -58,20 -9,11 -25,20 -36,20 -10,0 -24,7 -31,15 -7,8 -23,15 -37,15 -13,0 -26,7 -29,15 -4,8 -16,15 -29,15 -12,0 -30,9 -40,20 -12,13 -31,20 -55,20 -25,0 -43,7 -58,23 l -21,22 -3,1932 -3,1932 70,3 70,3 3,42 c 3,34 -1,44 -17,53 -12,6 -21,20 -21,30 0,11 -9,28 -20,37 -11,10 -20,27 -20,39 0,12 -7,27 -15,34 -8,7 -15,22 -15,34 0,50 -94,98 -128,64 z m 158,-4363 c 7,-8 28,-15 46,-15 21,0 42,-8 54,-20 11,-11 28,-20 38,-20 11,0 27,-9 37,-20 10,-11 28,-20 40,-20 13,0 28,-7 35,-15 7,-8 20,-15 30,-15 9,0 25,-9 34,-19 13,-14 26,-18 49,-14 24,4 37,0 51,-16 11,-12 29,-21 42,-21 13,0 28,-9 34,-20 6,-12 21,-20 36,-20 13,0 27,-7 30,-15 4,-9 19,-15 40,-15 22,0 37,-6 40,-15 4,-8 14,-15 24,-15 9,0 29,-9 43,-20 14,-11 32,-20 41,-20 9,0 25,-9 37,-21 15,-15 29,-20 49,-15 18,3 33,0 40,-9 7,-8 20,-15 30,-15 9,0 25,-9 35,-20 10,-11 28,-20 40,-20 12,0 30,-9 40,-20 12,-13 31,-20 57,-20 25,0 41,-5 44,-15 4,-8 16,-15 29,-15 12,0 28,-7 35,-15 7,-8 23,-15 36,-15 13,0 28,-9 34,-20 6,-11 21,-20 34,-20 13,0 31,-9 41,-20 12,-13 31,-20 55,-20 21,0 43,-7 50,-15 7,-8 18,-15 25,-15 17,0 113,-48 120,-60 3,-6 22,-10 42,-10 20,0 46,-9 60,-20 14,-11 32,-20 40,-20 8,0 26,-9 40,-20 17,-13 41,-20 68,-20 26,0 48,-6 55,-15 7,-8 23,-15 35,-15 13,0 25,-7 29,-15 3,-8 16,-15 29,-15 13,0 32,-9 42,-20 10,-11 28,-20 39,-20 12,0 29,-9 39,-20 12,-14 28,-20 51,-18 21,1 40,-5 50,-15 10,-9 26,-17 35,-17 10,0 24,-7 31,-15 7,-8 23,-15 36,-15 13,0 28,-9 34,-20 8,-15 21,-20 49,-20 22,0 44,-6 51,-15 7,-8 20,-15 29,-15 10,0 26,-7 37,-15 10,-8 29,-15 41,-15 12,0 27,-9 33,-20 8,-14 21,-20 45,-20 19,0 35,-3 35,-8 0,-7 64,-39 123,-61 15,-6 27,-15 27,-20 0,-6 21,-11 48,-13 34,-2 47,-7 47,-18 0,-13 -170,-15 -1474,-12 -811,1 -1476,4 -1478,6 -3,3 -7,1247 -4,1269 2,13 48,7 61,-8 z"
           id="path28" />
      </g>
      <g
         id="g34">
        <path
           d="m 1365,6627 c -26,-14 -17,-53 20,-86 19,-17 35,-39 35,-50 0,-11 9,-25 20,-31 18,-10 20,-21 20,-110 0,-89 -2,-100 -20,-110 -12,-6 -20,-21 -20,-35 0,-16 -12,-34 -35,-52 -54,-43 -41,-93 24,-93 24,0 120,96 121,120 0,9 8,22 18,31 15,13 17,31 15,138 -1,95 -5,127 -17,140 -9,10 -16,26 -16,35 0,10 -18,37 -41,61 -42,44 -91,61 -124,42 z"
           id="path32" />
      </g>
      <g
         id="g38">
        <path
           d="m 942,6583 c -28,-31 -41,-52 -37,-64 4,-11 -2,-23 -14,-31 -18,-13 -20,-27 -22,-141 -1,-104 2,-129 15,-142 9,-9 16,-27 16,-41 0,-14 6,-24 15,-24 8,0 27,-16 42,-35 24,-30 34,-35 71,-35 29,0 44,5 48,15 6,15 -34,85 -48,85 -4,0 -14,15 -22,34 -8,18 -19,37 -25,40 -18,11 -14,201 4,216 8,7 15,20 15,30 0,9 18,34 41,54 55,52 52,80 -11,83 -42,2 -48,-1 -88,-44 z"
           id="path36" />
      </g>
      <g
         id="g42">
        <path
           d="m 487,6593 c -14,-13 -6,-50 13,-68 14,-13 20,-31 20,-60 0,-34 4,-44 20,-48 16,-4 20,-14 20,-50 0,-28 6,-49 16,-58 11,-9 14,-22 9,-47 -8,-42 8,-64 41,-56 17,4 26,1 30,-10 4,-11 19,-16 50,-16 41,0 44,2 44,28 0,15 9,44 20,65 11,20 20,52 20,71 0,18 6,39 14,45 7,6 16,29 20,50 3,21 12,44 20,50 18,15 28,81 14,98 -11,14 -55,17 -82,7 -10,-4 -16,-18 -16,-35 0,-17 -6,-32 -15,-35 -11,-4 -15,-21 -15,-55 0,-35 -4,-51 -15,-55 -9,-4 -15,-19 -15,-35 0,-18 -6,-32 -15,-36 -22,-8 -27,0 -32,51 -3,25 -12,51 -19,57 -8,6 -14,29 -14,50 0,21 -5,41 -11,44 -5,4 -14,18 -19,31 -8,20 -16,24 -53,24 -24,0 -47,-3 -50,-7 z"
           id="path40" />
      </g>
      <g
         id="g46">
        <path
           d="m 5455,6520 c -4,-6 -6,-98 -6,-205 0,-107 2,-199 6,-205 4,-6 59,-10 135,-10 119,0 130,2 140,20 6,11 21,20 34,20 27,0 66,39 66,67 0,11 9,28 20,38 15,14 20,31 20,70 0,39 -5,56 -20,70 -11,10 -20,28 -20,40 0,27 -39,65 -67,65 -11,0 -28,9 -38,20 -16,18 -31,20 -141,20 -72,0 -125,-4 -129,-10 z m 205,-79 c 5,-11 22,-21 37,-23 22,-2 29,-9 31,-30 2,-14 10,-32 18,-38 18,-16 18,-41 0,-77 -8,-15 -17,-36 -20,-45 -3,-10 -14,-18 -24,-18 -10,0 -27,-9 -37,-20 -20,-23 -83,-28 -103,-8 -8,8 -12,51 -12,129 0,133 7,149 65,149 24,0 38,-6 45,-19 z"
           id="path44" />
      </g>
      <g
         id="g50">
        <path
           d="m 1052,6478 c -7,-7 -12,-17 -12,-23 0,-17 81,-105 96,-105 25,0 15,-18 -41,-76 -69,-72 -72,-94 -12,-94 31,0 49,6 62,20 10,11 26,20 36,20 10,0 23,-9 29,-20 8,-15 21,-20 55,-20 43,0 45,1 45,30 0,18 -6,33 -15,36 -8,4 -15,18 -15,34 0,16 -7,30 -15,34 -19,7 -20,36 -1,36 8,0 24,15 35,34 12,19 28,37 36,40 18,7 20,37 3,54 -24,24 -67,14 -99,-23 -17,-19 -37,-35 -43,-35 -7,0 -25,16 -40,35 -22,27 -36,35 -60,35 -18,0 -37,-5 -44,-12 z"
           id="path48" />
      </g>
      <g
         id="g54">
        <path
           d="m 2218,6438 c -10,-10 -26,-18 -36,-18 -10,0 -28,-10 -40,-23 -20,-21 -22,-34 -22,-140 0,-95 3,-119 15,-123 9,-4 15,-19 15,-35 0,-16 6,-30 13,-31 6,0 17,-2 23,-2 6,-1 19,-8 28,-15 20,-17 220,-25 248,-10 10,5 25,23 33,40 15,29 15,30 -17,60 -27,24 -40,29 -73,27 -36,-3 -40,-6 -45,-33 -8,-48 -47,-46 -98,6 -41,41 -42,43 -42,111 0,55 4,75 22,98 19,26 28,30 70,30 47,0 48,-1 48,-30 0,-29 2,-30 43,-30 33,0 50,6 75,29 17,17 32,32 32,33 0,2 -11,20 -25,39 l -26,34 h -112 c -93,0 -115,-3 -129,-17 z"
           id="path52" />
      </g>
      <g
         id="g58">
        <path
           d="m 1147,2983 c -4,-3 -7,-14 -7,-23 0,-10 -7,-23 -15,-30 -8,-7 -15,-20 -15,-30 0,-10 -7,-23 -15,-30 -8,-7 -15,-29 -15,-49 0,-23 -7,-45 -20,-59 -11,-12 -20,-30 -20,-40 0,-10 -9,-27 -20,-37 -15,-14 -20,-31 -20,-70 0,-59 12,-75 55,-75 41,0 55,16 55,63 0,59 34,87 105,87 47,0 56,-3 79,-30 20,-24 24,-37 19,-62 -8,-42 13,-56 69,-49 42,6 43,7 46,45 4,44 -16,91 -52,125 -19,18 -26,35 -26,62 0,20 -7,42 -15,49 -8,7 -15,20 -15,30 0,10 -7,23 -15,30 -8,7 -15,22 -15,34 0,37 -40,66 -91,66 -25,0 -49,-3 -52,-7 z m 91,-175 c 8,-23 9,-35 1,-45 -28,-33 -78,4 -64,47 5,16 15,22 45,29 3,0 11,-13 18,-31 z"
           id="path56" />
      </g>
      <g
         id="g62">
        <path
           d="m 1696,1175 c -3,-8 -17,-17 -31,-21 -18,-4 -25,-13 -25,-30 0,-13 -9,-28 -20,-34 -18,-10 -20,-21 -20,-108 0,-85 2,-99 19,-109 11,-7 21,-22 23,-35 2,-13 15,-28 29,-35 14,-7 38,-24 53,-38 22,-21 37,-25 85,-25 50,0 59,3 64,20 3,12 14,20 25,20 27,0 73,27 94,55 13,17 19,50 22,129 4,94 2,109 -14,124 -10,9 -20,28 -22,42 -2,19 -10,26 -31,28 -16,2 -31,10 -34,18 -8,21 -208,20 -217,-1 z m 178,-96 c 34,-39 36,-46 36,-111 0,-64 -3,-72 -29,-99 -46,-46 -88,-41 -140,17 -37,41 -41,51 -41,97 0,47 4,55 42,94 56,57 83,57 132,2 z"
           id="path60" />
      </g>
      <g
         id="g66">
        <path
           d="m 5010,1116 c -6,-6 -10,-92 -10,-202 0,-152 3,-194 14,-203 9,-8 62,-11 163,-11 135,2 150,4 171,23 12,11 22,31 22,43 0,13 5,26 10,29 6,3 10,21 10,38 0,25 -8,39 -35,60 -39,31 -42,39 -20,61 8,8 15,31 15,51 0,30 -8,44 -42,78 l -43,41 -123,1 c -67,0 -127,-4 -132,-9 z m 208,-81 c 27,-31 27,-29 0,-65 -31,-43 -70,-41 -98,5 -34,55 -18,79 56,84 11,0 30,-10 42,-24 z m 46,-177 c 35,-68 17,-88 -80,-88 h -71 l -6,41 c -9,69 -2,76 90,78 48,1 53,-1 67,-31 z"
           id="path64" />
      </g>
      <g
         id="g70">
        <path
           d="m 6638,914 c -19,-19 -6,-57 32,-94 21,-20 46,-40 55,-43 16,-7 21,-37 6,-37 -5,0 -30,-19 -55,-42 -39,-35 -47,-46 -44,-72 3,-29 6,-31 45,-32 32,-1 47,4 64,22 27,29 103,34 113,8 9,-24 61,-15 61,11 0,13 -8,21 -23,23 -19,3 -23,9 -20,32 1,17 -5,36 -16,48 -17,20 -17,21 3,41 12,12 21,30 21,41 0,11 7,20 15,20 20,0 30,46 14,66 -16,20 -75,11 -105,-17 -26,-24 -33,-24 -60,2 -23,21 -93,37 -106,23 z"
           id="path68" />
      </g>
    </g>
  </g>
</svg>
